<?xml version="1.0" standalone="no"?>
<!DOCTYPE svg PUBLIC "-//W3C//DTD SVG 20010904//EN"
 "http://www.w3.org/TR/2001/REC-SVG-20010904/DTD/svg10.dtd">
<svg version="1.0" xmlns="http://www.w3.org/2000/svg"
 width="512.000000pt" height="512.000000pt" viewBox="0 0 512.000000 512.000000"
 preserveAspectRatio="xMidYMid meet">

<g transform="translate(0.000000,512.000000) scale(0.100000,-0.100000)"
fill="#000000" stroke="none">
<path d="M1589 4891 l-24 -19 -3 -492 -3 -492 -35 31 -35 31 -710 0 c-730 0
-736 0 -766 -39 -10 -12 -12 -421 -13 -1834 l0 -1818 25 -24 24 -25 2129 0
c2094 0 2129 0 2149 19 12 11 35 62 52 113 246 747 741 2275 741 2289 0 10
-11 31 -24 46 l-24 28 -331 3 -330 3 -3 360 -3 361 -28 24 c-25 21 -38 24
-108 24 l-79 0 0 355 c0 289 -3 361 -14 383 -8 15 -165 177 -348 360 l-334
332 -941 0 c-911 0 -942 -1 -964 -19z m2138 -443 l303 -303 0 -717 0 -718
-1155 0 -1155 0 0 1020 0 1020 852 0 853 0 302 -302z m-2233 -738 l66 -79 0
-460 0 -460 -375 -3 c-359 -3 -375 -4 -394 -23 -12 -13 -132 -365 -321 -945
-166 -509 -304 -927 -306 -929 -2 -2 -4 667 -4 1487 l0 1492 634 0 634 0 66
-80z m2756 -695 l0 -305 -30 0 -30 0 0 305 0 305 30 0 30 0 0 -305z m673 -472
c4 -8 -696 -2159 -705 -2169 -3 -2 -909 -3 -2015 -2 l-2010 3 313 960 c173
528 332 1017 355 1088 l40 127 2009 0 c1105 0 2011 -3 2013 -7z"/>
<path d="M2092 4383 c-15 -6 -42 -56 -42 -78 0 -9 13 -30 29 -46 l29 -29 767
0 767 0 29 29 c16 16 29 37 29 46 0 24 -27 72 -45 79 -20 7 -1544 7 -1563 -1z"/>
<path d="M2079 3751 c-31 -25 -32 -83 -1 -114 l23 -22 774 0 774 0 23 22 c31
31 30 89 -1 114 -22 18 -56 19 -796 19 -740 0 -774 -1 -796 -19z"/>
<path d="M2100 3147 c-51 -26 -61 -93 -18 -129 19 -17 72 -18 793 -18 740 0
774 1 796 19 31 25 32 83 1 114 l-23 22 -762 2 c-599 2 -767 0 -787 -10z"/>
<path d="M807 1138 c-31 -24 -37 -68 -37 -272 0 -210 7 -258 40 -276 25 -14
1665 -14 1690 0 33 18 40 66 40 275 0 209 -7 257 -40 275 -30 16 -1672 13
-1693 -2z m1573 -273 l0 -125 -725 0 -725 0 0 125 0 125 725 0 725 0 0 -125z"/>
</g>
</svg>
