<svg xmlns="http://www.w3.org/2000/svg" shape-rendering="geometricPrecision" text-rendering="geometricPrecision" image-rendering="optimizeQuality" fill-rule="evenodd" clip-rule="evenodd" viewBox="0 0 421 511.604"><path fill="#E44B4D" d="M95.705.014h199.094L421 136.548v317.554c0 31.541-25.961 57.502-57.501 57.502H95.705c-31.55 0-57.502-25.873-57.502-57.502V57.515C38.203 25.886 64.076.014 95.705.014z"/><path fill="#CD4445" d="M341.029 133.407h-.02L421 188.771v-52.067h-54.357c-9.458-.15-17.997-1.273-25.614-3.297z"/><path fill="#FBCFD0" d="M294.8 0L421 136.533v.171h-54.357c-45.068-.717-69.329-23.396-71.843-61.383V0z"/><path fill="#CD4445" fill-rule="nonzero" d="M0 431.9V253.403l.028-1.261c.668-16.445 14.333-29.705 30.936-29.705h7.239v50.589h342.974c12.862 0 23.373 10.509 23.373 23.371V431.9c0 12.83-10.543 23.373-23.373 23.373H23.373C10.541 455.273 0 444.749 0 431.9z"/><path fill="#963232" fill-rule="nonzero" d="M143.448 240.363a8.496 8.496 0 110-16.993h163.176a8.497 8.497 0 010 16.993H143.448zm0-59.175a8.497 8.497 0 01-8.497-8.497 8.497 8.497 0 018.497-8.497h172.304a8.497 8.497 0 018.497 8.497 8.497 8.497 0 01-8.497 8.497H143.448z"/><path fill="#fff" fill-rule="nonzero" d="M11.329 276.171v154.727c0 7.793 6.379 14.179 14.179 14.179H380.175c7.799 0 14.178-6.38 14.178-14.179V297.405c0-7.799-6.388-14.179-14.178-14.179H37.892c-12.618-.096-19.586-1.637-26.563-7.055z"/><path fill="#1A1A1A" fill-rule="nonzero" d="M149.646 370.648h-26.208v9.959h32.104v20.965H97.233v-81.894h57.653l-3.275 20.965h-28.173v11.008h26.208v18.997zm43.173-50.97l9.041 21.883h1.31l9.04-21.883h28.434l-18.213 39.57 18.213 42.324h-29.088l-9.827-23.586h-1.18l-9.695 23.586h-27.779l17.82-41.536-17.82-40.358h29.744zm109.737 50.97h-26.208v9.959h32.104v20.965h-58.309v-81.894h57.654l-3.275 20.965h-28.174v11.008h26.208v18.997z"/></svg>