<svg xmlns="http://www.w3.org/2000/svg" width="256" height="256" version="2.0" viewBox="0 0 256 256"><path fill="url(#a)" d="M128.001 128.02v119.99c44.43 0 83.221-24.146 103.965-60.031L128.001 128.02Z"/><path fill="url(#b)" d="M248 128.02c-.002 21.839-5.838 42.315-16.034 59.955L128.001 128.02H248Z"/><path fill="url(#c)" d="M231.964 68.037C242.163 85.678 248 106.16 248 128.005v.01H128.001l103.963-59.978Z"/><path fill="url(#d)" d="M188.08 24.109a120.594 120.594 0 0 1 43.953 44.05l-104.032 60.016L188.08 24.109Z"/><path fill="url(#e)" d="M128.583 8c21.648.103 41.939 5.938 59.437 16.065L128.001 128.01V8h.582Z"/><path fill="url(#f)" d="M146.831 246.534a120.88 120.88 0 0 1-18.83 1.469V8c14.905 0 29.175 2.717 42.343 7.684-3.576 21.54-9.865 61.981-14.565 106.088-5.522 51.836-8.117 105.118-8.948 124.762Z"/><path fill="url(#g)" d="M128.001 8H29.818C17.768 8 8 17.768 8 29.819v196.365c0 12.05 9.768 21.819 21.819 21.819H128V8Z"/><path fill="#fff" d="M46.773 105.375c6.338 3.997 14.333 6.045 22.133 6.045 12.578 0 24.765-7.41 24.765-21.157 0-24.279-35.685-15.6-35.685-30.13 0-5.849 7.02-8.481 12.187-8.481 7.703 0 15.016 3.315 20.866 7.995V46.582c-6.337-3.803-13.26-5.85-21.06-5.85-12.48 0-23.79 7.214-23.79 20.28-.39 24.667 35.782 14.918 35.587 29.933 0 6.727-7.214 9.458-13.065 9.458-7.898 0-16.087-3.706-21.938-8.678v13.65Z"/><defs><linearGradient id="a" x1="188.001" x2="188.001" y1="188.025" y2="248.031" gradientUnits="userSpaceOnUse"><stop offset="0.792075" stop-color="#FA7C50"/><stop offset="1" stop-color="#F56E40"/></linearGradient><linearGradient id="b" x1="197.374" x2="220.5" y1="167.697" y2="128.019" gradientUnits="userSpaceOnUse"><stop stop-color="#FAB291"/><stop offset="0.17562" stop-color="#FAC7AF"/></linearGradient><linearGradient id="c" x1="203.937" x2="203.951" y1="128.015" y2="84.2542" gradientUnits="userSpaceOnUse"><stop stop-color="#FA9164"/><stop offset="0.205023" stop-color="#FA9B73"/></linearGradient><linearGradient id="d" x1="201.437" x2="177.062" y1="85.0406" y2="40.9771" gradientUnits="userSpaceOnUse"><stop stop-color="#DB4712"/><stop offset="0.164298" stop-color="#E6511C"/></linearGradient><linearGradient id="e" x1="174.874" x2="128.001" y1="44.2486" y2="12.3735" gradientUnits="userSpaceOnUse"><stop stop-color="#75210C"/><stop offset="0.139864" stop-color="#85250D"/></linearGradient><linearGradient id="f" x1="119.774" x2="145.937" y1="70.6091" y2="73.2334" gradientUnits="userSpaceOnUse"><stop offset="0.392157" stop-opacity="0.49"/><stop offset="1" stop-opacity="0"/></linearGradient><linearGradient id="g" x1="68.0005" x2="68.0005" y1="8" y2="248.003" gradientUnits="userSpaceOnUse"><stop stop-color="#FA7C50"/><stop offset="1" stop-color="#F56E40"/></linearGradient></defs></svg>