<?xml version="1.0" standalone="no"?>
<!DOCTYPE svg PUBLIC "-//W3C//DTD SVG 20010904//EN"
 "http://www.w3.org/TR/2001/REC-SVG-20010904/DTD/svg10.dtd">
<svg version="1.0" xmlns="http://www.w3.org/2000/svg"
 width="100.000000pt" height="100.000000pt" viewBox="0 0 100.000000 100.000000"
 preserveAspectRatio="xMidYMid meet">

<g transform="translate(0.000000,100.000000) scale(0.100000,-0.100000)"
fill="#000000" stroke="none">
<path d="M140 500 l0 -460 360 0 360 0 0 328 -1 327 -138 133 -139 132 -221 0
-221 0 0 -460z m420 290 l0 -130 130 0 130 0 0 -290 0 -290 -320 0 -320 0 0
420 0 420 190 0 190 0 0 -130z m185 -39 l49 -51 -97 0 -97 0 0 91 0 91 48 -40
c26 -22 69 -63 97 -91z"/>
<path d="M310 430 l0 -100 45 0 c33 0 45 4 45 15 0 9 -9 15 -25 15 -25 0 -25
1 -25 85 0 78 -2 85 -20 85 -19 0 -20 -7 -20 -100z"/>
<path d="M440 508 c-31 -34 -29 -130 5 -163 30 -31 40 -31 70 0 21 20 25 34
25 82 0 68 -19 103 -55 103 -13 0 -33 -10 -45 -22z m55 -79 c0 -50 -3 -64 -15
-64 -17 0 -26 70 -15 112 12 48 30 18 30 -48z"/>
<path d="M595 505 c-34 -33 -38 -108 -9 -152 11 -18 24 -23 59 -23 l45 0 0 55
c0 54 0 55 -30 55 -20 0 -30 -5 -30 -15 0 -8 5 -15 10 -15 6 0 10 -11 10 -25
0 -28 -24 -34 -34 -9 -9 23 -7 87 3 103 5 7 20 14 35 14 19 0 26 5 26 18 0 29
-55 25 -85 -6z"/>
</g>
</svg>
