<?xml version="1.0" standalone="no"?>
<!DOCTYPE svg PUBLIC "-//W3C//DTD SVG 20010904//EN"
 "http://www.w3.org/TR/2001/REC-SVG-20010904/DTD/svg10.dtd">
<svg version="1.0" xmlns="http://www.w3.org/2000/svg"
 width="512.000000pt" height="512.000000pt" viewBox="0 0 512.000000 512.000000"
 preserveAspectRatio="xMidYMid meet">

<g transform="translate(0.000000,512.000000) scale(0.100000,-0.100000)"
fill="#000000" stroke="none">
<path d="M2462 4525 c-167 -73 -214 -294 -89 -419 23 -23 57 -48 75 -55 l32
-13 0 -661 0 -662 -77 77 c-95 93 -128 110 -220 117 l-73 6 -253 440 -254 440
22 35 c72 111 52 262 -44 343 -80 67 -217 77 -307 21 -58 -35 -110 -114 -120
-182 -23 -153 98 -292 258 -296 l61 -2 228 -394 c126 -217 228 -398 229 -402
0 -5 -108 -8 -241 -8 -274 0 -292 -4 -337 -74 -14 -23 -27 -43 -29 -45 -1 -2
-113 61 -248 139 l-245 142 0 47 c0 64 -15 111 -53 167 -85 126 -278 142 -389
32 -178 -179 -21 -486 226 -440 32 6 76 23 98 37 l38 26 283 -164 282 -163 3
-277 2 -277 -404 0 -404 0 -22 45 c-41 85 -126 135 -230 135 -268 0 -356 -352
-121 -484 46 -25 66 -30 120 -30 37 1 82 8 102 16 52 23 113 80 134 128 l18
40 404 0 403 0 0 -278 0 -278 -286 -164 c-242 -139 -288 -162 -302 -152 -145
106 -351 47 -406 -116 -43 -126 7 -253 123 -314 109 -57 255 -27 323 66 40 55
49 79 56 159 l7 68 240 139 240 138 5 -89 c4 -75 8 -92 28 -111 l23 -23 1112
0 c1104 0 1112 0 1147 21 49 28 73 68 94 157 10 42 20 77 22 77 7 0 527 -300
537 -310 5 -4 9 -36 11 -71 5 -147 111 -249 259 -249 155 0 268 125 254 280
-6 69 -34 127 -83 170 -52 45 -99 63 -170 64 -50 1 -72 -5 -123 -31 l-63 -32
-271 155 c-150 86 -282 162 -294 170 l-22 14 19 67 c10 38 42 159 71 270 l52
203 343 0 342 0 22 -45 c41 -84 126 -134 228 -135 103 0 179 44 226 130 50 93
45 185 -17 276 -107 161 -369 135 -444 -44 l-13 -32 -325 0 c-179 0 -325 1
-325 3 0 2 7 28 16 57 20 67 15 147 -12 183 -34 47 -90 67 -188 67 l-87 0 3
91 3 91 336 194 336 194 61 -32 c49 -25 74 -31 119 -31 276 0 364 368 118 488
-178 87 -386 -47 -374 -242 l3 -47 -364 -211 -365 -210 -263 5 -262 5 303 525
304 525 74 6 c105 7 167 45 213 129 35 65 43 132 23 201 -33 110 -136 185
-252 183 -99 -2 -172 -46 -223 -133 -23 -39 -27 -57 -27 -121 0 -73 12 -113
49 -165 13 -18 -12 -65 -313 -585 l-327 -565 -112 -3 -112 -3 0 689 0 689 40
18 c79 36 139 131 140 221 0 153 -109 265 -259 264 -37 -1 -81 -7 -99 -15z
m170 -164 c28 -25 33 -36 33 -76 0 -40 -5 -51 -33 -76 -24 -22 -42 -29 -72
-29 -30 0 -48 7 -72 29 -28 25 -33 36 -33 76 0 40 5 51 33 76 24 22 42 29 72
29 30 0 48 -7 72 -29z m-1152 -308 c22 -20 33 -40 37 -70 5 -39 2 -46 -30 -78
-28 -28 -43 -35 -75 -35 -67 0 -123 65 -108 126 20 80 116 110 176 57z m2299
1 c76 -64 29 -184 -71 -184 -53 0 -97 41 -105 97 -5 39 -2 46 30 78 45 45 99
49 146 9z m-3137 -843 c28 -25 33 -36 33 -76 0 -40 -5 -51 -33 -76 -87 -78
-221 17 -168 119 35 69 112 83 168 33z m3980 0 c28 -25 33 -36 33 -76 0 -40
-5 -51 -33 -76 -24 -22 -42 -29 -72 -29 -30 0 -48 7 -72 29 -28 25 -33 36 -33
76 0 40 5 51 33 76 24 22 42 29 72 29 30 0 48 -7 72 -29z m-2394 -465 c15 -8
65 -53 112 -101 139 -141 79 -129 680 -135 l515 -5 3 -67 3 -68 -905 -2 c-896
-3 -905 -3 -932 -24 -15 -11 -36 -32 -47 -46 -11 -15 -52 -152 -97 -327 -43
-167 -81 -305 -84 -308 -3 -4 -6 242 -6 545 l0 552 365 0 c298 0 371 -3 393
-14z m1612 -538 c0 -17 -269 -1059 -280 -1085 l-10 -23 -1025 0 c-933 0 -1025
1 -1025 16 0 12 187 748 271 1067 l10 37 1029 0 c792 0 1030 -3 1030 -12z
m-3514 -136 c55 -44 59 -109 10 -158 -27 -27 -42 -34 -74 -34 -76 0 -127 74
-99 143 8 19 25 42 38 51 31 21 98 20 125 -2z m4597 -2 c81 -64 37 -190 -66
-190 -53 0 -107 52 -107 102 0 33 20 72 50 95 24 20 94 16 123 -7z m-4281
-1159 c28 -25 33 -36 33 -76 0 -40 -5 -51 -33 -76 -56 -50 -133 -36 -168 33
-53 102 81 197 168 119z m3984 -2 c23 -24 29 -39 29 -75 0 -39 -5 -50 -33 -75
-56 -50 -133 -36 -168 33 -36 69 18 148 100 148 34 0 48 -6 72 -31z"/>
<path d="M1904 1750 c-48 -19 -52 -105 -5 -129 13 -7 154 -11 409 -11 366 0
391 1 413 19 32 26 32 86 0 112 -22 18 -46 19 -410 18 -212 0 -395 -4 -407 -9z"/>
<path d="M1785 1395 c-14 -13 -25 -36 -25 -50 0 -14 11 -37 25 -50 l24 -25
394 0 c382 0 394 1 415 20 32 30 30 82 -4 109 -26 20 -37 21 -416 21 l-389 0
-24 -25z"/>
</g>
</svg>
