<?xml version="1.0" standalone="no"?>
<!DOCTYPE svg PUBLIC "-//W3C//DTD SVG 20010904//EN"
 "http://www.w3.org/TR/2001/REC-SVG-20010904/DTD/svg10.dtd">
<svg version="1.0" xmlns="http://www.w3.org/2000/svg"
 width="512.000000pt" height="512.000000pt" viewBox="0 0 512.000000 512.000000"
 preserveAspectRatio="xMidYMid meet">

<g transform="translate(0.000000,512.000000) scale(0.100000,-0.100000)"
fill="#000000" stroke="none">
<path d="M1469 5097 c-24 -13 -57 -43 -74 -66 l-30 -43 -3 -243 -3 -244 -447
-3 -447 -3 -67 -32 c-85 -40 -151 -106 -191 -191 l-32 -67 0 -1535 0 -1535 33
-67 c41 -84 128 -167 209 -200 l58 -23 886 -3 887 -3 -24 -75 c-48 -151 -94
-431 -94 -574 l0 -60 -148 0 c-117 0 -152 -3 -170 -16 -27 -19 -29 -64 -4 -87
17 -16 93 -17 885 -17 952 0 897 -4 897 60 0 52 -26 60 -192 60 l-148 0 0 60
c0 143 -46 425 -93 572 l-25 77 757 3 756 3 58 23 c81 33 168 116 209 200 l33
67 0 1535 0 1535 -32 67 c-40 85 -106 151 -191 191 l-67 32 -460 3 -461 3
-309 309 -310 310 -801 0 -801 0 -44 -23z m1561 -319 c0 -214 1 -225 24 -274
47 -101 88 -114 367 -114 l219 0 0 -1110 c0 -1092 0 -1110 -20 -1130 -11 -11
-30 -22 -42 -25 -13 -3 -481 -4 -1041 -3 l-1019 3 -19 24 c-18 23 -19 60 -19
1413 l0 1389 25 24 24 25 751 0 750 0 0 -222z m325 -68 l200 -200 -178 0
c-240 0 -227 -13 -227 225 0 96 1 175 3 175 1 0 92 -90 202 -200z m-1995
-1437 c0 -1057 1 -1110 19 -1148 22 -47 64 -89 104 -104 40 -15 2114 -15 2154
0 40 15 82 57 104 104 18 38 19 91 19 1148 l0 1108 443 -3 444 -3 48 -30 c57
-35 110 -100 125 -153 6 -25 10 -462 10 -1304 l0 -1268 -2270 0 -2270 0 2
1288 3 1289 30 48 c17 26 46 61 66 77 70 56 77 57 542 58 l427 0 0 -1107z
m3468 -1940 c-3 -152 -6 -184 -22 -217 -25 -50 -75 -100 -129 -128 l-42 -23
-2075 0 -2075 0 -42 22 c-51 28 -105 82 -130 131 -15 31 -19 67 -21 215 l-3
177 2271 0 2271 0 -3 -177z m-1800 -555 c53 -152 102 -431 102 -579 l0 -69
-440 0 -440 0 0 69 c0 146 41 382 96 559 l26 82 317 0 317 0 22 -62z"/>
<path d="M1692 4644 c-29 -20 -31 -79 -3 -94 13 -6 210 -10 570 -10 604 0 581
-2 581 60 0 61 11 60 -585 60 -473 0 -543 -2 -563 -16z"/>
<path d="M2597 4085 c-9 -8 -25 -43 -37 -79 -20 -60 -23 -64 -58 -70 -73 -12
-98 -8 -110 18 -17 38 -82 106 -101 106 -9 0 -72 -33 -141 -73 -141 -82 -148
-93 -110 -167 43 -84 43 -84 -1 -138 l-39 -50 -43 10 c-62 14 -117 12 -133 -4
-9 -8 -31 -75 -50 -148 -44 -165 -43 -170 56 -201 76 -25 74 -22 85 -109 5
-43 4 -46 -26 -64 -56 -33 -99 -77 -99 -101 0 -34 130 -255 158 -268 19 -9 35
-4 92 23 76 37 72 37 144 -22 28 -24 28 -25 17 -77 -13 -62 -14 -101 -2 -120
10 -16 241 -81 288 -81 36 0 47 15 77 106 16 50 18 52 63 58 76 10 89 8 101
-18 17 -38 82 -106 101 -106 9 0 73 33 141 73 146 84 149 90 100 187 l-31 62
40 52 39 53 64 -14 c74 -15 103 -11 122 20 7 12 28 77 46 145 40 154 39 159
-59 192 -77 26 -75 24 -86 110 -5 45 -5 45 41 74 60 38 84 64 84 92 0 32 -131
254 -157 266 -17 8 -36 4 -92 -22 l-71 -33 -40 28 c-61 42 -63 47 -51 105 15
72 14 105 -6 122 -19 16 -239 78 -278 78 -13 0 -30 -7 -38 -15z m90 -541 c174
-84 217 -308 87 -453 -116 -129 -312 -129 -429 1 -146 162 -69 415 145 475 59
17 133 8 197 -23z"/>
<path d="M4202 1278 c-7 -7 -12 -26 -12 -43 0 -52 10 -55 182 -55 145 0 158 1
168 19 14 28 12 57 -6 75 -13 13 -43 16 -168 16 -105 0 -156 -4 -164 -12z"/>
</g>
</svg>
